<?xml version="1.0" encoding="utf-8"?>
<!-- Svg Vector Icons : http://www.onlinewebfonts.com/icon -->
<!DOCTYPE svg PUBLIC "-//W3C//DTD SVG 1.1//EN" "http://www.w3.org/Graphics/SVG/1.1/DTD/svg11.dtd">
<svg version="1.1" xmlns="http://www.w3.org/2000/svg" xmlns:xlink="http://www.w3.org/1999/xlink" x="0px" y="0px" viewBox="0 0 1000 1000" enable-background="new 0 0 1000 1000" xml:space="preserve">
<metadata> Svg Vector Icons : http://www.onlinewebfonts.com/icon </metadata>
<g><g id="_x33_e91140ac1bfb9903b91c1b0ca092167"><path d="M720.5,483.7C717.7,307.4,625.1,161.7,530,70.2C499.8,41.1,495,10,495,10s0.6,13.7-15,30.1c-65.9,69-107.8,105.5-147.9,193c-49.9,108.9-52.6,253.1-52.6,253.1S282.1,605,332,701.8c38.7,74.9,106.9,136.2,133.9,158.7c2.5-8.5,7.2-25.6,10.5-43.1c5.1-27.2,7.3-56,7.3-56.3c0.5-6.4,5.8-11.5,12.3-11.6c0.1,0,0.1,0,0.2,0c6.4,0,11.7,4.8,12.5,11.1c0,0.4,4.9,43.5,14.4,69.8c4.8,13.4,13.3,17.8,13.7,18c3.5,1.4,5.8,4.2,6.9,7.8c0.1,0.2,0.1,0.4,0.1,0.5C569.8,835.3,724,699.4,720.5,483.7z M459.1,730.2c-4.5,7.1-7.3,15.4-8,24c0,0.2-0.8,10-2.4,23.1c-25.3-26.5-53-60.5-72.3-97.9c-43-83.4-47.7-186.6-48.1-196.9c0.4-11.8,5.2-140.6,48.9-236.1c24.2-52.9,49.2-85.5,81.8-120.8V730.2z M531.3,859.7c0,0-8.3,12.5-10,27.6c-4.4,38-5,102.8-5,102.8l-25.1-7.5c0,0-0.7-42.7-5-75.2c-2.9-21.6-10-37.6-10-37.6s7.8-24.5,12.5-50.1c5.2-28.2,7.5-57.6,7.5-57.6s5,44.6,15,72.7C518.1,853.6,531.3,859.7,531.3,859.7z"/></g></g>
</svg>